<?xml version="1.0" encoding="utf-8"?>
<!-- Generator: Adobe Illustrator 19.0.1, SVG Export Plug-In . SVG Version: 6.00 Build 0)  -->
<svg version="1.1" id="Layer_1" xmlns="http://www.w3.org/2000/svg" xmlns:xlink="http://www.w3.org/1999/xlink" x="0px" y="0px"
	 viewBox="-414 33 533 446" style="enable-background:new -414 33 533 446;" xml:space="preserve">
<style type="text/css">
	.st0{fill:#0B3D91;}
	.st1{fill:#FFFFFF;}
	.st2{fill:#FC3D21;}
</style>
<g>
	<circle class="st0" cx="-165.9" cy="256" r="213.6"/>
	<g>
		<circle class="st1" cx="-178.5" cy="83.4" r="2.4"/>
		<circle class="st1" cx="-153.9" cy="86.6" r="2.4"/>
		<circle class="st1" cx="-121.6" cy="130.1" r="2.4"/>
		<circle class="st1" cx="-298.5" cy="353.5" r="2.4"/>
		<circle class="st1" cx="-292.3" cy="372.7" r="2.4"/>
		<circle class="st1" cx="-322" cy="356.4" r="1.8"/>
		<circle class="st1" cx="-224.6" cy="394" r="1.8"/>
		<circle class="st1" cx="-71.9" cy="362.3" r="1.8"/>
		<circle class="st1" cx="-27.5" cy="314.1" r="1.8"/>
		<circle class="st1" cx="-245" cy="144.1" r="1.8"/>
		<circle class="st1" cx="-196.2" cy="108.2" r="1.8"/>
		<circle class="st1" cx="-201.5" cy="104.7" r="1.8"/>
		<circle class="st1" cx="-206.3" cy="101.2" r="1.8"/>
		<circle class="st1" cx="-237.4" cy="153.3" r="1.8"/>
		<circle class="st1" cx="-165.4" cy="60" r="1.8"/>
		<circle class="st1" cx="-153.6" cy="111.7" r="1.8"/>
		<circle class="st1" cx="-172.2" cy="101.6" r="1.8"/>
		<circle class="st1" cx="-204.2" cy="115.3" r="1.8"/>
		<circle class="st1" cx="-63.4" cy="409.7" r="1.8"/>
		<circle class="st1" cx="-301.5" cy="365.7" r="1.8"/>
		<circle class="st1" cx="-176.7" cy="388.8" r="1.8"/>
		<circle class="st1" cx="-264.4" cy="364.2" r="1.8"/>
		<circle class="st1" cx="-248.9" cy="389.6" r="1.8"/>
		<circle class="st1" cx="-134.6" cy="373.6" r="1.8"/>
		<circle class="st1" cx="-71.6" cy="338" r="1.8"/>
		<circle class="st1" cx="-23.8" cy="359.9" r="1.8"/>
		<circle class="st1" cx="-7.5" cy="370.3" r="1.8"/>
		<circle class="st1" cx="-4.8" cy="341.9" r="1.8"/>
		<circle class="st1" cx="-242.4" cy="301.7" r="1.8"/>
		<circle class="st1" cx="-241.7" cy="342.8" r="2.4"/>
		<circle class="st1" cx="-227.3" cy="373.2" r="2.4"/>
		<circle class="st1" cx="-55.2" cy="341.6" r="2.4"/>
		<circle class="st1" cx="6.7" cy="338" r="2.4"/>
		<circle class="st1" cx="-23.9" cy="325" r="2.4"/>
		<circle class="st1" cx="-55.2" cy="326.2" r="2.4"/>
		<path class="st1" d="M-119.8,81.9l6-0.6l-5.9-0.3c-0.2-1.1-1.1-2-2.3-2.2l-0.6-5.9l-0.3,6c-1.1,0.2-1.9,1.1-2,2.3l-6.1,0.6
			l6.1,0.3c0.2,1,1.1,1.8,2.1,2l0.6,6.1l0.3-6.1C-120.9,83.9-120,83-119.8,81.9z"/>
		<path class="st1" d="M-220.3,148.2l6-0.6l-5.9-0.3c-0.2-1.1-1.1-2-2.3-2.2l-0.6-5.9l-0.3,6c-1.1,0.2-1.9,1.1-2,2.3l-6.1,0.6
			l6.1,0.3c0.2,1,1.1,1.8,2.1,2l0.6,6.1l0.3-6.1C-221.3,150.2-220.5,149.3-220.3,148.2z"/>
		<path class="st1" d="M2.3,323.5l6-0.6l-5.9-0.3c-0.2-1.1-1.1-2-2.3-2.2l-0.6-5.9l-0.3,6c-1.1,0.2-1.9,1.1-2,2.3l-6.1,0.6l6.1,0.3
			c0.2,1,1.1,1.8,2.1,2l0.6,6.1l0.3-6.1C1.3,325.4,2.1,324.6,2.3,323.5z"/>
		<path class="st1" d="M-240.4,415.1l6-0.6l-5.9-0.3c-0.2-1.1-1.1-2-2.3-2.2l-0.6-5.9l-0.3,6c-1.1,0.2-1.9,1.1-2,2.3l-6.1,0.6
			l6.1,0.3c0.2,1,1.1,1.8,2.1,2l0.6,6.1l0.3-6.1C-241.5,417.1-240.6,416.2-240.4,415.1z"/>
		<path class="st1" d="M-16.6,370.4l6-0.6l-5.9-0.3c-0.2-1.1-1.1-2-2.3-2.2l-0.6-5.9l-0.3,6c-1.1,0.2-1.9,1.1-2,2.3l-6.1,0.6
			l6.1,0.3c0.2,1,1.1,1.8,2.1,2l0.6,6.1l0.3-6.1C-17.7,372.4-16.8,371.5-16.6,370.4z"/>
		<path class="st2" d="M-115.2,204.8c-24.8,9.7-49.1,18.3-69.5,24.7c-41.5,13-155.2,48.2-223.8,92.6l5.7,2.2
			c41.8-23.6,69-31,95.1-39.3c28.4-8.9,120.3-30.4,161.9-42.1c14.1-4,30.5-9.1,47.9-15.4c-4.1-5.7-8.3-11.3-12.8-17
			C-112.1,208.6-113.7,206.7-115.2,204.8z M-84.9,246.7c-6,4.1-11.1,7.3-14.6,9.3c-20.4,11.8-120,79.8-142.7,95.5
			s-85.6,75-104.1,92.3l-0.6,7c59.7-53.6,78.4-66.9,102.2-84.9c29.4-22.3,90.1-63.7,110.8-76.9c19.7-12.7,37.5-24.3,53.5-35
			c-0.3-0.4-0.5-0.9-0.8-1.3C-82.4,250.6-83.6,248.6-84.9,246.7z M8.5,148.1c-29.1,17-74.9,37.6-119.4,55.1c1.1,1.3,2.1,2.6,3.2,3.9
			c5,6.3,9.7,12.6,14.1,18.9c35-12.9,73.3-30.2,103.8-51.1c-14.5,13.7-62.4,49.6-91.7,69.5c1.5,2.5,3,4.9,4.4,7.3
			c44.3-29.6,74.1-51.4,91.4-66c23.9-20.1,78.5-65.1,99.3-125.5C77.1,106.6,34.1,133.1,8.5,148.1z"/>
		<path class="st1" d="M-193.3,308.9c-4.7-5.9-11.2-13.9-16.1-20c-6.5-8.2-12.6-16.5-18.1-24.9c-1.8,0.5-3.6,0.9-5.4,1.4
			c6.7,10.4,14.1,20.9,22.2,31.1c5.9,7.4,11.3,13.4,14.1,17.2c0.6,0.8,1.7,2.4,3.2,4.7c1.7-1.2,3.5-2.4,5.2-3.5
			C-190,312.9-191.7,310.9-193.3,308.9z M-159,340.1c-3.9-3.7-13.2-9.8-23-18.9c-2.2,1.5-4.3,3-6.5,4.5c6.3,8.9,14.9,19.8,21.6,23
			C-156.7,353.4-154,344.8-159,340.1z M-107.8,207.1c-55.8-70.3-124-108.9-153.4-85.5c-22.8,18.1-13.5,71.2,18,126.9
			c1.6-0.6,3.2-1.1,4.8-1.6c-31.8-54.3-40.5-104.7-18.9-121.8c27.1-21.5,92.4,17.2,146.6,85.5c11.2,14.1,21.1,28.3,29.4,42.1
			c32,52.9,41.8,100.8,19.7,120.4c-6.8,6-27.4,8.3-54.5-3.9c-0.4,0.5,0.2,1.8,0.7,2.1c23.4,9.4,45.8,13,57.1,4
			C-31.1,353.6-51.9,277.4-107.8,207.1z"/>
		<path class="st1" d="M-347.2,215.5h35.8l30,50.9c0,0,0-36.9,0-39.7c0-4.5-5.7-10.3-7.7-11.2c2.4,0,23.3,0,24.7,0
			c-1.5,0.4-6.4,6.3-6.4,11.2c0,2.4,0,55.9,0,58.4c0,3.6,5.2,8.5,7.7,10.5h-34.5l-30.5-51.2c0,0,0,38.2,0,40.2c0,4,3.9,7.8,8,11.1
			h-26.3c3.8-1.6,7.3-6.6,7.7-10.6c0.3-4,0-55.5,0-57.7C-338.7,222.5-343.4,218.5-347.2,215.5z"/>
		<path class="st1" d="M-20.1,295.5h47.6c-2.6-0.6-5.6-3.8-7.2-7.9c-1.6-4.2-26.8-72.2-26.8-72.2h-18.1c-5.1,3.7-10.6,7.6-16.5,11.7
			c0,0.1,0,0.3-0.1,0.4c-0.8,4.8-14.9,56.1-15.8,58.6c-1.2,3.5-7.3,7.4-9.8,9.5h25.6c-2.6-2.9-4.6-5.7-4.2-8.9
			c0.5-3.2,1.9-9.6,1.9-9.6h26.5c1.2,3.2,2.1,6.1,2.6,8.8C-13.8,289.3-17.2,293-20.1,295.5z M-41,267l8.9-29.2l11.8,29.2H-41z
			 M-45.1,218.4c1.3-1,2.6-1.9,3.9-2.9h-6.9C-47.4,216.1-46.2,217.1-45.1,218.4z"/>
		<path class="st1" d="M-227,286.8c0.5-3.2,1.9-9.6,1.9-9.6h26.5c1.2,3.2,2.1,6.1,2.6,8.8c0.6,3.3-2.8,6.9-5.7,9.5h41.9
			c0.9-0.6,1.7-1.2,2.6-1.8c-1.6-1.4-3.1-3.6-4.1-6.2c-1.6-4.2-26.8-72.2-26.8-72.2h-41.5c2,1.8,7.7,6.8,6.9,12.1
			c-0.8,4.8-14.9,56.1-15.8,58.6c-1.2,3.5-7.3,7.4-9.8,9.5h25.6C-225.4,292.8-227.5,290-227,286.8z M-213.7,237.8l11.8,29.2h-20.8
			L-213.7,237.8z"/>
		<path class="st1" d="M-82.3,255.2c-7.8,5.2-16.1,10.6-24.7,16.3c3.9,1.9,7,4.3,7.3,7.3c0.6,5.8-11,8.5-21.5,7.3
			c-2.1-0.2-4.1-0.8-6.1-1.5c-2.2,1.4-4.4,2.8-6.6,4.2c-2.3,1.5-5,3.2-8.1,5.3v8.3c2.1-4.1,6.6-7.7,10.1-7.9
			c1.5-0.1,6.8,4.8,28.5,3.6c10.5-0.6,30.9-11.8,30.6-24.7C-73.1,265.8-77.1,259.8-82.3,255.2z M-142.1,275.2v8.4
			c1.9-1.3,3.8-2.5,5.7-3.8C-139.3,277.8-141.4,275.9-142.1,275.2z M-89.7,249.9c-2-1.2-4.1-2.2-6-3.2c-10.2-4.8-20.9-5.7-23.1-12.1
			c-1.6-4.6,2.9-8.8,13.7-8.6c10.9,0.2,20.9,6.6,23.6,8.9v-20.6c-0.8,0.8-4.3,4.8-7.5,4.2c-6.1-1.3-16.6-2.9-28.6-2.9
			c-13.7,0.1-25.5,10.7-25.9,24.1c-0.6,18.8,14.4,23.9,22.9,26.8c0.9,0.3,1.9,0.6,2.9,1c8.1-5.3,14.5-9.3,18.3-11.5
			C-96.9,254.5-93.6,252.5-89.7,249.9z"/>
	</g>
</g>
</svg>
